<svg xmlns="http://www.w3.org/2000/svg" xmlns:xlink="http://www.w3.org/1999/xlink" width="100" zoomAndPan="magnify" viewBox="0 0 375 374.999991" height="100" preserveAspectRatio="xMidYMid meet" version="1.0"><defs><g/><clipPath id="b38fc5e465"><path d="M 85.832031 66 L 262 66 L 262 290.339844 L 85.832031 290.339844 Z M 85.832031 66 " clip-rule="nonzero"/></clipPath></defs><g fill="#ffbd59" fill-opacity="1"><g transform="translate(75.320323, 323.666317)"><g><path d="M 34.816406 -1.21875 L 31.855469 -27.898438 C 31.761719 -28.667969 31.367188 -29.0625 30.65625 -29.0625 L 29.285156 -29.0625 C 28.5 -29.0625 28.292969 -28.554688 27.917969 -27.917969 L 18.261719 -11.792969 L 8.605469 -27.917969 C 8.230469 -28.554688 8.023438 -29.0625 7.238281 -29.0625 L 5.867188 -29.0625 C 5.15625 -29.0625 4.761719 -28.667969 4.667969 -27.898438 L 1.707031 -1.21875 C 1.613281 -0.375 2.15625 0 2.945312 0 L 9.1875 0 C 9.917969 0 10.3125 -0.335938 10.386719 -1.144531 L 11.175781 -9.074219 L 16.21875 -0.636719 C 16.707031 0.1875 17.175781 0.523438 17.886719 0.523438 L 18.636719 0.523438 C 19.347656 0.523438 19.816406 0.1875 20.304688 -0.636719 L 25.347656 -9.074219 L 26.136719 -1.144531 C 26.210938 -0.335938 26.605469 0 27.335938 0 L 33.578125 0 C 34.367188 0 34.910156 -0.375 34.816406 -1.21875 Z M 34.816406 -1.21875 "/></g></g></g><g fill="#ffbd59" fill-opacity="1"><g transform="translate(111.840617, 323.666317)"><g><path d="M 1.21875 -14.210938 C 1.21875 -5.886719 7.742188 0.523438 16.105469 0.523438 C 24.449219 0.523438 30.992188 -5.886719 30.992188 -14.210938 C 30.992188 -22.554688 24.429688 -29.003906 16.105469 -29.003906 C 7.761719 -29.003906 1.21875 -22.554688 1.21875 -14.210938 Z M 9.804688 -14.210938 C 9.804688 -17.738281 12.582031 -20.4375 16.105469 -20.4375 C 19.613281 -20.4375 22.40625 -17.738281 22.40625 -14.210938 C 22.40625 -10.707031 19.628906 -8.0625 16.105469 -8.0625 C 12.5625 -8.0625 9.804688 -10.707031 9.804688 -14.210938 Z M 9.804688 -14.210938 "/></g></g></g><g fill="#ffbd59" fill-opacity="1"><g transform="translate(144.048966, 323.666317)"><g><path d="M 27.9375 -28.480469 L 21.035156 -28.480469 C 20.511719 -28.480469 20.191406 -28.140625 20.191406 -27.617188 L 20.191406 -15.316406 L 11.042969 -15.316406 L 11.042969 -27.617188 C 11.042969 -28.140625 10.707031 -28.480469 10.179688 -28.480469 L 3.300781 -28.480469 C 2.773438 -28.480469 2.4375 -28.179688 2.4375 -27.617188 L 2.4375 -0.863281 C 2.4375 -0.320312 2.773438 0 3.300781 0 L 10.179688 0 C 10.707031 0 11.042969 -0.335938 11.042969 -0.863281 L 11.042969 -7.816406 L 20.191406 -7.816406 L 20.191406 -0.863281 C 20.191406 -0.335938 20.511719 0 21.035156 0 L 27.9375 0 C 28.460938 0 28.796875 -0.320312 28.796875 -0.863281 L 28.796875 -27.617188 C 28.796875 -28.179688 28.460938 -28.480469 27.9375 -28.480469 Z M 27.9375 -28.480469 "/></g></g></g><g fill="#ffbd59" fill-opacity="1"><g transform="translate(175.282441, 323.666317)"><g><path d="M 29.003906 -1.292969 L 17.417969 -27.898438 C 17.15625 -28.515625 16.59375 -29.003906 15.898438 -29.003906 L 13.875 -29.003906 C 13.253906 -29.003906 12.617188 -28.609375 12.300781 -27.898438 L 0.65625 -1.3125 C 0.320312 -0.542969 0.695312 0 1.519531 0 L 8.34375 0 C 9.09375 0 9.636719 -0.507812 9.84375 -1.085938 L 10.5 -3.019531 L 19.179688 -3.019531 L 19.835938 -1.070312 C 20.0625 -0.429688 20.644531 0.0195312 21.316406 0.0195312 L 28.160156 0.0195312 C 29.023438 0.0195312 29.324219 -0.5625 29.003906 -1.292969 Z M 12.636719 -9.316406 L 14.832031 -15.804688 L 17.042969 -9.316406 Z M 12.636719 -9.316406 "/></g></g></g><g fill="#ffbd59" fill-opacity="1"><g transform="translate(204.941118, 323.666317)"><g><path d="M 34.816406 -1.21875 L 31.855469 -27.898438 C 31.761719 -28.667969 31.367188 -29.0625 30.65625 -29.0625 L 29.285156 -29.0625 C 28.5 -29.0625 28.292969 -28.554688 27.917969 -27.917969 L 18.261719 -11.792969 L 8.605469 -27.917969 C 8.230469 -28.554688 8.023438 -29.0625 7.238281 -29.0625 L 5.867188 -29.0625 C 5.15625 -29.0625 4.761719 -28.667969 4.667969 -27.898438 L 1.707031 -1.21875 C 1.613281 -0.375 2.15625 0 2.945312 0 L 9.1875 0 C 9.917969 0 10.3125 -0.335938 10.386719 -1.144531 L 11.175781 -9.074219 L 16.21875 -0.636719 C 16.707031 0.1875 17.175781 0.523438 17.886719 0.523438 L 18.636719 0.523438 C 19.347656 0.523438 19.816406 0.1875 20.304688 -0.636719 L 25.347656 -9.074219 L 26.136719 -1.144531 C 26.210938 -0.335938 26.605469 0 27.335938 0 L 33.578125 0 C 34.367188 0 34.910156 -0.375 34.816406 -1.21875 Z M 34.816406 -1.21875 "/></g></g></g><g fill="#ffbd59" fill-opacity="1"><g transform="translate(241.461412, 323.666317)"><g><path d="M 23.792969 -8.136719 L 11.042969 -8.136719 L 11.042969 -10.628906 L 20.269531 -10.628906 C 21.128906 -10.628906 21.65625 -11.117188 21.65625 -11.886719 L 21.65625 -15.710938 C 21.65625 -16.535156 21.128906 -17.003906 20.269531 -17.003906 L 11.042969 -17.003906 L 11.042969 -20.324219 L 23.886719 -20.324219 C 24.65625 -20.324219 25.105469 -20.792969 25.105469 -21.5625 L 25.105469 -27.261719 C 25.105469 -28.011719 24.65625 -28.480469 23.886719 -28.480469 L 3.65625 -28.480469 C 2.886719 -28.480469 2.4375 -28.03125 2.4375 -27.261719 L 2.4375 -1.179688 C 2.4375 -0.46875 2.886719 0 3.65625 0 L 24.261719 0 C 24.992188 0 25.460938 -0.46875 25.460938 -1.179688 L 25.460938 -6.5625 C 25.460938 -7.519531 24.824219 -8.136719 23.792969 -8.136719 Z M 23.792969 -8.136719 "/></g></g></g><g fill="#ffbd59" fill-opacity="1"><g transform="translate(268.757894, 323.666317)"><g><path d="M 2.4375 -1.179688 C 2.4375 -0.5625 3 0 3.65625 0 L 15.46875 0 C 23.90625 0 29.699219 -5.8125 29.699219 -14.230469 C 29.699219 -22.6875 23.886719 -28.480469 15.46875 -28.480469 L 3.65625 -28.480469 C 3 -28.480469 2.4375 -27.9375 2.4375 -27.28125 Z M 11.042969 -8.15625 L 11.042969 -20.417969 L 15.46875 -20.457031 C 18.804688 -20.492188 21.074219 -17.753906 21.074219 -14.230469 C 21.074219 -10.894531 18.804688 -8.15625 15.46875 -8.15625 Z M 11.042969 -8.15625 "/></g></g></g><g fill="#ffbd59" fill-opacity="1"><g transform="translate(115.847421, 361.413492)"><g><path d="M 1.5625 -5.75 L 1.5625 -13.46875 C 1.5625 -15.5 2.097656 -16.992188 3.171875 -17.953125 C 4.253906 -18.910156 5.695312 -19.390625 7.5 -19.390625 C 9.300781 -19.390625 10.742188 -18.910156 11.828125 -17.953125 C 12.921875 -16.992188 13.46875 -15.5 13.46875 -13.46875 L 13.46875 -5.75 C 13.46875 -3.71875 12.921875 -2.222656 11.828125 -1.265625 C 10.742188 -0.316406 9.300781 0.15625 7.5 0.15625 C 5.695312 0.15625 4.253906 -0.316406 3.171875 -1.265625 C 2.097656 -2.222656 1.5625 -3.71875 1.5625 -5.75 Z M 4.375 -5.75 C 4.375 -3.46875 5.414062 -2.328125 7.5 -2.328125 C 8.507812 -2.328125 9.285156 -2.609375 9.828125 -3.171875 C 10.378906 -3.742188 10.65625 -4.601562 10.65625 -5.75 L 10.65625 -13.46875 C 10.65625 -14.613281 10.378906 -15.46875 9.828125 -16.03125 C 9.285156 -16.601562 8.507812 -16.890625 7.5 -16.890625 C 5.414062 -16.890625 4.375 -15.75 4.375 -13.46875 Z M 4.375 -5.75 "/></g></g></g><g fill="#ffbd59" fill-opacity="1"><g transform="translate(143.212009, 361.413492)"><g><path d="M 1.671875 -5.75 L 1.671875 -18.484375 C 1.671875 -18.785156 1.804688 -19.007812 2.078125 -19.15625 C 2.359375 -19.3125 2.691406 -19.390625 3.078125 -19.390625 C 3.460938 -19.390625 3.789062 -19.3125 4.0625 -19.15625 C 4.34375 -19.007812 4.484375 -18.785156 4.484375 -18.484375 L 4.484375 -5.75 C 4.484375 -4.601562 4.765625 -3.742188 5.328125 -3.171875 C 5.890625 -2.609375 6.6875 -2.328125 7.71875 -2.328125 C 9.894531 -2.328125 10.984375 -3.46875 10.984375 -5.75 L 10.984375 -18.484375 C 10.984375 -18.785156 11.117188 -19.007812 11.390625 -19.15625 C 11.660156 -19.3125 11.988281 -19.390625 12.375 -19.390625 C 12.769531 -19.390625 13.101562 -19.3125 13.375 -19.15625 C 13.644531 -19.007812 13.78125 -18.785156 13.78125 -18.484375 L 13.78125 -5.75 C 13.78125 -3.71875 13.226562 -2.222656 12.125 -1.265625 C 11.019531 -0.316406 9.550781 0.15625 7.71875 0.15625 C 5.894531 0.15625 4.429688 -0.316406 3.328125 -1.265625 C 2.222656 -2.222656 1.671875 -3.71875 1.671875 -5.75 Z M 1.671875 -5.75 "/></g></g></g><g fill="#ffbd59" fill-opacity="1"><g transform="translate(171.027182, 361.413492)"><g><path d="M 1.75 -0.90625 L 1.75 -18.453125 C 1.75 -18.734375 1.875 -18.957031 2.125 -19.125 C 2.375 -19.300781 2.664062 -19.390625 3 -19.390625 L 7.828125 -19.390625 C 9.453125 -19.390625 10.75 -19.050781 11.71875 -18.375 C 12.6875 -17.707031 13.171875 -16.515625 13.171875 -14.796875 C 13.171875 -12.609375 12.421875 -11.175781 10.921875 -10.5 C 11.828125 -10.144531 12.507812 -9.632812 12.96875 -8.96875 C 13.425781 -8.3125 13.65625 -7.347656 13.65625 -6.078125 L 13.65625 -5.5625 C 13.65625 -3.625 13.175781 -2.210938 12.21875 -1.328125 C 11.269531 -0.441406 9.988281 0 8.375 0 L 3 0 C 2.625 0 2.320312 -0.0859375 2.09375 -0.265625 C 1.863281 -0.441406 1.75 -0.65625 1.75 -0.90625 Z M 4.53125 -2.5 L 7.84375 -2.5 C 9.84375 -2.5 10.84375 -3.59375 10.84375 -5.78125 L 10.84375 -6.203125 C 10.84375 -7.335938 10.585938 -8.148438 10.078125 -8.640625 C 9.578125 -9.140625 8.832031 -9.390625 7.84375 -9.390625 L 4.53125 -9.390625 Z M 4.53125 -11.609375 L 7.6875 -11.609375 C 9.476562 -11.609375 10.375 -12.519531 10.375 -14.34375 C 10.375 -16.039062 9.460938 -16.890625 7.640625 -16.890625 L 4.53125 -16.890625 Z M 4.53125 -11.609375 "/></g></g></g><g fill="#ffbd59" fill-opacity="1"><g transform="translate(198.047211, 361.413492)"><g><path d="M 1.75 -0.921875 L 1.75 -18.484375 C 1.75 -18.785156 1.882812 -19.007812 2.15625 -19.15625 C 2.4375 -19.3125 2.769531 -19.390625 3.15625 -19.390625 C 3.539062 -19.390625 3.867188 -19.3125 4.140625 -19.15625 C 4.421875 -19.007812 4.5625 -18.785156 4.5625 -18.484375 L 4.5625 -0.921875 C 4.5625 -0.640625 4.421875 -0.414062 4.140625 -0.25 C 3.867188 -0.0820312 3.539062 0 3.15625 0 C 2.78125 0 2.453125 -0.0820312 2.171875 -0.25 C 1.890625 -0.414062 1.75 -0.640625 1.75 -0.921875 Z M 1.75 -0.921875 "/></g></g></g><g fill="#ffbd59" fill-opacity="1"><g transform="translate(216.718337, 361.413492)"><g><path d="M 1.75 -0.90625 L 1.75 -18.484375 C 1.75 -18.734375 1.867188 -18.945312 2.109375 -19.125 C 2.347656 -19.300781 2.644531 -19.390625 3 -19.390625 L 7.6875 -19.390625 C 9.488281 -19.390625 10.929688 -18.910156 12.015625 -17.953125 C 13.109375 -16.992188 13.65625 -15.5 13.65625 -13.46875 L 13.65625 -5.90625 C 13.65625 -3.875 13.109375 -2.378906 12.015625 -1.421875 C 10.929688 -0.472656 9.488281 0 7.6875 0 L 3 0 C 2.644531 0 2.347656 -0.0859375 2.109375 -0.265625 C 1.867188 -0.441406 1.75 -0.65625 1.75 -0.90625 Z M 4.5625 -2.5 L 7.6875 -2.5 C 9.789062 -2.5 10.84375 -3.632812 10.84375 -5.90625 L 10.84375 -13.46875 C 10.84375 -15.75 9.789062 -16.890625 7.6875 -16.890625 L 4.5625 -16.890625 Z M 4.5625 -2.5 "/></g></g></g><g fill="#ffbd59" fill-opacity="1"><g transform="translate(244.268462, 361.413492)"><g><path d="M 0.375 -1.171875 C 0.375 -1.273438 0.378906 -1.351562 0.390625 -1.40625 L 5.671875 -18.59375 C 5.890625 -19.226562 6.484375 -19.546875 7.453125 -19.546875 C 8.441406 -19.546875 9.039062 -19.226562 9.25 -18.59375 L 14.5 -1.40625 C 14.539062 -1.300781 14.5625 -1.222656 14.5625 -1.171875 C 14.5625 -0.847656 14.367188 -0.570312 13.984375 -0.34375 C 13.609375 -0.113281 13.207031 0 12.78125 0 C 12.269531 0 11.953125 -0.191406 11.828125 -0.578125 L 10.734375 -4.34375 L 4.1875 -4.34375 L 3.109375 -0.578125 C 2.984375 -0.191406 2.65625 0 2.125 0 C 1.695312 0 1.296875 -0.113281 0.921875 -0.34375 C 0.554688 -0.570312 0.375 -0.847656 0.375 -1.171875 Z M 4.796875 -6.609375 L 10.109375 -6.609375 L 7.453125 -15.703125 Z M 4.796875 -6.609375 "/></g></g></g><g clip-path="url(#b38fc5e465)"><path fill="#ff914d" d="M 232.480469 234.742188 C 232.480469 206.976562 232.480469 179.636719 232.480469 152.289062 C 232.128906 152.15625 231.777344 152.019531 231.425781 151.882812 C 216.902344 170.136719 202.375 188.386719 187.324219 207.304688 C 181.96875 200.625 176.835938 194.226562 171.25 187.261719 C 143.855469 221.726562 116.679688 255.90625 89.277344 290.375 C 88.03125 289.375 87.027344 288.574219 85.839844 287.617188 C 144.164062 214.207031 202.273438 141.066406 261.117188 66.992188 C 261.117188 123.613281 261.117188 179.039062 261.117188 234.742188 C 251.714844 234.742188 242.558594 234.742188 232.480469 234.742188 Z M 232.480469 234.742188 " fill-opacity="1" fill-rule="nonzero"/></g><path fill="#ff914d" d="M 113.542969 67.757812 C 134.828125 94.535156 155.449219 120.476562 176.527344 147 C 178.128906 145.074219 179.535156 143.433594 180.875 141.746094 C 214.683594 99.175781 248.476562 56.578125 282.339844 14.042969 C 283.832031 12.171875 285.242188 7.847656 288.972656 12.773438 C 246.480469 66.257812 203.957031 119.785156 160.945312 173.933594 C 154.949219 166.5 149.242188 159.410156 142.867188 151.511719 C 142.625 153.589844 142.363281 154.777344 142.363281 155.976562 C 142.339844 168.316406 142.492188 180.660156 142.234375 192.996094 C 142.179688 195.535156 141.230469 198.484375 139.695312 200.484375 C 131.378906 211.359375 122.746094 222 113.539062 233.582031 C 113.542969 178.007812 113.542969 123.484375 113.542969 67.757812 Z M 113.542969 67.757812 " fill-opacity="1" fill-rule="nonzero"/></svg>